# xmcd
#
# Track frame offsets:
#	150
#	17027
#	43989
#	72125
#	88177
#	106766
#	128708
#	148766
#	163733
#	184286
#	200914
#	221290
#	238984
#	265539
#	279824
#	301107
#
# Disc length: 4410 seconds
#
# Revision: 2
# Processed by: cddbd v1.5.1PL0 Copyright (c) Steve Scherf et al.
# Submitted via: audiograbber 1.83.01
#
DISCID=e7113810
DTITLE=Bryan Adams - Grand Collection
DYEAR=1997
DGENRE=Pop
TTITLE0=When you love someone
TTITLE1=Please forgive me
TTITLE2=Do I have to say the words
TTITLE3=Straight from the heart
TTITLE4=Heaven
TTITLE5=Have you ever really loved a woman
TTITLE6=I'm ready
TTITLE7=A little love
TTITLE8=Back to you
TTITLE9=The only thing that looks good on me is you
TTITLE10=Can't stop this thing we started
TTITLE11=Run to you
TTITLE12=Thought I'd died and gone to heaven
TTITLE13='O sole mio (with Luciano Pavaroti)
TTITLE14=All for love (with Sting and Rod Steward)
TTITLE15=(Everything I do) I do it for you
EXTD=
EXTT0=
EXTT1=
EXTT2=
EXTT3=
EXTT4=
EXTT5=
EXTT6=
EXTT7=
EXTT8=
EXTT9=
EXTT10=
EXTT11=
EXTT12=
EXTT13=
EXTT14=
EXTT15=
PLAYORDER=
